<svg width="92" height="92" viewBox="0 0 92 92" fill="none" xmlns="http://www.w3.org/2000/svg">
<path d="M17.6998 5.42378H74.3002C83.4596 5.42378 90.887 12.2239 90.887 20.636V72.5745C90.887 80.9867 83.4596 87.7868 74.3002 87.7868H17.6998C8.54038 87.7868 1.11304 80.9867 1.11304 72.5745V20.6653C1.11304 12.2532 8.54038 5.42378 17.6998 5.42378Z" fill="#FFA500"/>
<path fill-rule="evenodd" clip-rule="evenodd" d="M17.6998 6.53504C9.06652 6.53504 2.22606 12.9517 2.22606 20.6653V72.5745C2.22606 80.2855 9.06363 86.6755 17.6998 86.6755H74.3002C82.9364 86.6755 89.7739 80.2855 89.7739 72.5745V20.636C89.7739 12.9251 82.9364 6.53504 74.3002 6.53504H17.6998ZM0 20.6653C0 11.5546 8.01422 4.3125 17.6998 4.3125H74.3002C83.9829 4.3125 92 11.5226 92 20.636V72.5745C92 81.6879 83.9829 88.898 74.3002 88.898H17.6998C8.01711 88.898 0 81.6879 0 72.5745V20.6653Z" fill="black"/>
<path d="M32.8186 19.3756L49.8751 19.405C53.4273 19.3756 56.0988 19.9325 57.8602 21.0757C60.0033 22.4826 61.0895 24.8567 61.0895 28.2568C61.0895 33.8551 58.418 37.0207 53.1044 37.7827V37.8707C55.4529 38.4276 56.6272 40.3328 56.6566 43.5569C56.6566 45.1983 56.5979 47.3087 56.4804 49.8881C56.4804 51.6174 56.8621 53.1122 57.596 54.3726H48.2311C47.7907 53.9036 47.5852 52.9657 47.5852 51.5588C47.7614 49.1846 47.8495 47.2501 47.8495 45.7259C47.8495 42.6483 46.3522 41.1242 43.3285 41.1242H37.2809L34.6388 53.5519H25.5381L32.8186 19.3756ZM47.233 26.4981H40.5395L38.8075 34.7344H46.0587C50.11 34.7344 52.1356 33.181 52.165 30.0447C52.1356 27.6706 50.521 26.4981 47.233 26.4981Z" fill="black"/>
<path d="M58.7997 54.3433L65.5519 42.9414L67.372 54.4312H78.88L68.4876 61.7003L70.1609 73.1021L61.1777 66.2141L49.0826 73.3659L54.7485 61.2313L48.1725 54.314L58.7997 54.3433Z" fill="black"/>
<path d="M89.5659 84.4453C89.9476 84.4453 90.2998 84.5333 90.6521 84.7385C91.0044 84.9436 91.298 85.2074 91.4741 85.5591C91.6796 85.9109 91.7677 86.2919 91.7677 86.673C91.7677 87.054 91.6796 87.435 91.4741 87.7868C91.2686 88.1385 91.0044 88.4023 90.6521 88.6075C90.2998 88.8126 89.9182 88.9006 89.5366 88.9006C89.1549 88.9006 88.7733 88.8126 88.421 88.6075C88.0687 88.4023 87.8045 88.1385 87.599 87.7868C87.3935 87.435 87.3054 87.054 87.3054 86.673C87.3054 86.2919 87.3935 85.9109 87.599 85.5591C87.8045 85.2074 88.0687 84.9436 88.421 84.7385C88.8026 84.5333 89.1843 84.4453 89.5659 84.4453ZM89.5659 84.7971C89.243 84.7971 88.9494 84.885 88.6559 85.0316C88.3623 85.1781 88.1274 85.4126 87.9513 85.7057C87.7751 85.9988 87.6871 86.3212 87.6871 86.6436C87.6871 86.9661 87.7751 87.2592 87.9219 87.5523C88.0981 87.8454 88.3036 88.0799 88.5971 88.2264C88.8907 88.4023 89.2136 88.4609 89.5072 88.4609C89.8008 88.4609 90.1237 88.373 90.4173 88.2264C90.7109 88.0506 90.9457 87.8454 91.0925 87.5523C91.2686 87.2592 91.3273 86.9661 91.3273 86.6436C91.3273 86.3212 91.2393 85.9988 91.0925 85.7057C90.9163 85.4126 90.6815 85.1781 90.3879 85.0316C90.1824 84.885 89.8595 84.7971 89.5659 84.7971ZM88.5678 87.8747V85.4712H89.3898C89.6834 85.4712 89.8888 85.5005 90.0063 85.5298C90.1237 85.5885 90.2411 85.6471 90.2998 85.7643C90.3879 85.8816 90.4173 85.9988 90.4173 86.1161C90.4173 86.2919 90.3586 86.4385 90.2411 86.585C90.1237 86.7023 89.9476 86.7902 89.7421 86.7902C89.8301 86.8195 89.8888 86.8781 89.9476 86.9074C90.0356 86.9954 90.1531 87.1712 90.2998 87.3764L90.5934 87.8454H90.1237L89.9182 87.4643C89.7421 87.1712 89.6246 86.9954 89.5072 86.9074C89.4485 86.8488 89.3311 86.8195 89.1843 86.8195H88.9494V87.8454H88.5678V87.8747ZM88.9788 86.5557H89.4485C89.6834 86.5557 89.8301 86.5264 89.9182 86.4678C90.0063 86.4092 90.0356 86.3212 90.0356 86.204C90.0356 86.1454 90.0063 86.0574 89.9769 86.0281C89.9476 85.9695 89.8888 85.9402 89.8008 85.9109C89.7127 85.8816 89.5953 85.8816 89.4191 85.8816H88.9788V86.5557Z" fill="black"/>
<path d="M66.6674 60.8796L73.5663 56.0726H65.9334L64.6124 47.7484L59.7685 56.014H52.0769L56.774 60.9382L52.8989 69.1745L61.295 64.221L67.9297 69.2918L66.6674 60.8796Z" fill="white"/>
</svg>
